<svg width="28" height="29" viewBox="0 0 28 29" fill="none" xmlns="http://www.w3.org/2000/svg">
<path fill-rule="evenodd" clip-rule="evenodd" d="M24.1723 24.5621L22.9552 20.0121C22.8854 19.7571 22.9203 19.4821 23.04 19.2421C24.1025 17.1071 24.4566 14.5571 23.8032 11.8971C22.9153 8.29714 20.112 5.40714 16.5305 4.45214C15.5529 4.19714 14.5902 4.07214 13.6574 4.07214C6.96334 4.07214 1.7358 10.3671 3.5415 17.3721C4.3795 20.6121 7.83127 23.9671 11.0785 24.7571C11.9564 24.9721 12.8194 25.0721 13.6574 25.0721C15.4581 25.0721 17.1441 24.6071 18.6255 23.8071C18.7901 23.7171 18.9747 23.6671 19.1543 23.6671C19.2441 23.6671 19.3338 23.6771 19.4236 23.7021L23.8431 24.8871C23.868 24.8921 23.893 24.8971 23.9129 24.8971C24.0825 24.8971 24.2172 24.7371 24.1723 24.5621ZM21.5585 20.3871L22.2469 22.9621L19.7977 22.3071C19.5882 22.2521 19.3737 22.2221 19.1543 22.2221C18.7353 22.2221 18.3113 22.3321 17.9322 22.5371C16.6004 23.2571 15.1638 23.6221 13.6574 23.6221C12.9142 23.6221 12.1609 23.5271 11.4177 23.3471C8.66927 22.6771 5.64149 19.7171 4.94316 17.0071C4.21489 14.1771 4.78853 11.2721 6.51441 9.03714C8.24029 6.80214 10.8441 5.52214 13.6574 5.52214C14.4854 5.52214 15.3284 5.63214 16.1614 5.85714C19.2391 6.67714 21.6284 9.12714 22.4015 12.2471C22.9452 14.4471 22.7208 16.6421 21.7481 18.5971C21.4688 19.1571 21.3989 19.7921 21.5585 20.3871Z" fill="white" stroke="white"/>
</svg>
