<svg width="25" height="25" viewBox="0 0 25 25" fill="none" xmlns="http://www.w3.org/2000/svg">
<path d="M9.32947 6.46403V5.80436C9.32947 4.27419 10.5361 2.77123 12.0361 2.62841C13.8228 2.45159 15.3295 3.88655 15.3295 5.67514V6.61365" stroke="#A8A8A8" stroke-width="2" stroke-miterlimit="10" stroke-linecap="round" stroke-linejoin="round"/>
<path d="M15.3295 10.6136L15.3295 11.4229C15.3295 12.9531 14.1228 14.4561 12.6228 14.5989C10.8361 14.7757 9.32947 13.3407 9.32947 11.5521L9.32947 10.6136" stroke="#A8A8A8" stroke-width="2" stroke-miterlimit="10" stroke-linecap="round" stroke-linejoin="round"/>
<path d="M3.32947 9.61365C3.32947 7.95679 4.67261 6.61365 6.32947 6.61365H18.3295C19.9863 6.61365 21.3295 7.95679 21.3295 9.61365V17.6136C21.3295 20.3751 19.0909 22.6136 16.3295 22.6136H8.32947C5.56804 22.6136 3.32947 20.3751 3.32947 17.6136V9.61365Z" stroke="#A8A8A8" stroke-width="2"/>
</svg>
