<svg width="28" height="28" viewBox="0 0 28 28" fill="none" xmlns="http://www.w3.org/2000/svg">
<path d="M14.1178 24.5C13.6752 24.5 13.2528 24.3566 12.8958 24.0851C10.472 22.2463 4.67903 17.6724 3.22575 14.9015C1.32493 11.2802 2.46643 6.62951 5.76521 4.53463C6.83128 3.85854 8.03815 3.5 9.26514 3.5C11.1006 3.5 12.8254 4.26829 14.1178 5.63585C15.4101 4.26829 17.1349 3.5 18.9704 3.5C20.1974 3.5 21.4043 3.85854 22.4703 4.53463C25.7691 6.62951 26.9106 11.2802 25.0148 14.9015C23.5615 17.6724 17.7686 22.2463 15.3448 24.0851C14.9827 24.3566 14.5603 24.5 14.1178 24.5ZM9.26514 5.03659C8.31976 5.03659 7.38946 5.31317 6.56477 5.83561C3.92473 7.51561 3.01958 11.2546 4.55331 14.1741C5.90099 16.7454 11.9655 21.4678 13.7909 22.8507C13.982 22.9941 14.2485 22.9941 14.4396 22.8507C16.265 21.4627 22.3295 16.7402 23.6772 14.1741C25.2109 11.2546 24.3058 7.51049 21.6657 5.83561C20.8461 5.31317 19.9158 5.03659 18.9704 5.03659C17.316 5.03659 15.7672 5.8561 14.7212 7.28L14.1178 8.10976L13.5143 7.28C12.4684 5.8561 10.9246 5.03659 9.26514 5.03659Z" fill="white" stroke="white"/>
</svg>
