<svg width="24" height="25" viewBox="0 0 24 25" fill="none" xmlns="http://www.w3.org/2000/svg">
<path d="M12 14.3805C10.159 14.3805 8.66667 15.8729 8.66667 17.7139V22.6136H2V12.559L12 2.61365L22 12.559V22.6136H15.3333V17.7139C15.3333 15.8729 13.8409 14.3805 12 14.3805Z" fill="#A8A8A8"/>
<path d="M8.66667 22.6136V23.6136C9.21895 23.6136 9.66667 23.1659 9.66667 22.6136H8.66667ZM2 22.6136H1C1 23.1659 1.44772 23.6136 2 23.6136V22.6136ZM2 12.559L1.29483 11.85C1.10611 12.0377 1 12.2929 1 12.559H2ZM12 2.61365L12.7052 1.90461C12.3151 1.51666 11.6849 1.51666 11.2948 1.90461L12 2.61365ZM22 12.559H23C23 12.2929 22.8939 12.0377 22.7052 11.85L22 12.559ZM22 22.6136V23.6136C22.5523 23.6136 23 23.1659 23 22.6136H22ZM15.3333 22.6136H14.3333C14.3333 23.1659 14.781 23.6136 15.3333 23.6136V22.6136ZM7.66667 17.7139V22.6136H9.66667V17.7139H7.66667ZM8.66667 21.6136H2V23.6136H8.66667V21.6136ZM3 22.6136V12.559H1V22.6136H3ZM2.70517 13.2681L12.7052 3.32269L11.2948 1.90461L1.29483 11.85L2.70517 13.2681ZM11.2948 3.32269L21.2948 13.2681L22.7052 11.85L12.7052 1.90461L11.2948 3.32269ZM21 12.559V22.6136H23V12.559H21ZM22 21.6136H15.3333V23.6136H22V21.6136ZM16.3333 22.6136V17.7139H14.3333V22.6136H16.3333ZM16.3333 17.7139C16.3333 15.3206 14.3932 13.3805 12 13.3805V15.3805C13.2887 15.3805 14.3333 16.4252 14.3333 17.7139H16.3333ZM9.66667 17.7139C9.66667 16.4252 10.7113 15.3805 12 15.3805V13.3805C9.60676 13.3805 7.66667 15.3206 7.66667 17.7139H9.66667Z" fill="#A8A8A8"/>
</svg>
