<svg width="28" height="29" viewBox="0 0 28 29" fill="none" xmlns="http://www.w3.org/2000/svg">
<path fill-rule="evenodd" clip-rule="evenodd" d="M25.7945 4.5844C25.6168 4.26424 25.2772 4.07214 24.9114 4.07214L3.33508 4.08815C2.90136 4.08815 2.52512 4.36029 2.37358 4.77116C2.26384 5.06998 2.28997 5.39014 2.43628 5.6516C2.49376 5.74765 2.56692 5.83836 2.65576 5.9184L10.9696 13.2394L12.9971 24.2369C13.0755 24.6691 13.3995 24.9893 13.828 25.0587C14.2513 25.128 14.6693 24.9253 14.8888 24.5464L25.7893 5.62492C25.9774 5.29943 25.9774 4.90456 25.7945 4.5844ZM4.80346 5.67295H22.3718L11.7952 11.836L4.80346 5.67295ZM14.2722 22.4547L12.5686 13.2127L23.1608 7.0443L14.2722 22.4547Z" fill="white" stroke="white"/>
</svg>
