<svg width="25" height="25" viewBox="0 0 25 25" fill="none" xmlns="http://www.w3.org/2000/svg">
<path d="M22.8864 15.6136V9.61365C22.8864 4.61365 20.8864 2.61365 15.8864 2.61365H9.88635C4.88635 2.61365 2.88635 4.61365 2.88635 9.61365V15.6136C2.88635 20.6136 4.88635 22.6136 9.88635 22.6136H15.8864C20.8864 22.6136 22.8864 20.6136 22.8864 15.6136Z" stroke="#A8A8A8" stroke-width="2" stroke-linecap="round" stroke-linejoin="round"/>
<path d="M3.40637 7.72363H22.3664" stroke="#A8A8A8" stroke-width="2" stroke-linecap="round" stroke-linejoin="round"/>
<path d="M7.88635 3.11365L10.8864 7.61365" stroke="#A8A8A8" stroke-width="2" stroke-linecap="round" stroke-linejoin="round"/>
<path d="M13.8864 2.61365L16.8864 7.61365" stroke="#A8A8A8" stroke-width="2" stroke-linecap="round" stroke-linejoin="round"/>
<path d="M16.3131 13.9699C17.0268 14.3445 17.0268 15.3662 16.3131 15.7408L11.2149 18.4167C10.549 18.7662 9.75012 18.2832 9.75012 17.5312L9.75012 12.1795C9.75012 11.4274 10.549 10.9445 11.2149 11.294L16.3131 13.9699Z" fill="#A8A8A8"/>
</svg>
