<svg width="122" height="36" viewBox="0 0 122 36" fill="none" xmlns="http://www.w3.org/2000/svg">
<path fill-rule="evenodd" clip-rule="evenodd" d="M6.26886 0.121114C3.77809 1.1842 1.03291 4.18018 0.169129 7.94328C-0.925391 12.7091 3.6361 14.7265 4.01474 14.0681C4.44663 13.2889 3.19237 13.0232 2.93205 10.5527C2.59482 7.35737 4.06207 3.78756 5.90205 2.22313C6.24519 1.9332 6.22745 2.3379 6.22745 3.08689C6.22745 4.42783 6.15645 16.454 6.15645 18.9608C6.15645 22.3554 6.02037 23.4306 5.77189 24.4876C5.51749 25.5628 5.11518 26.2876 5.42283 26.5655C5.76597 26.8796 7.2273 26.1366 8.06742 24.9346C9.07911 23.497 9.43409 21.7695 9.49917 19.897C9.57609 17.6319 9.57017 14.05 9.57609 12.0023C9.57609 10.1238 9.60567 4.6332 9.5465 1.32917C9.52284 0.525813 7.31605 -0.319826 6.26886 0.121114ZM121.324 17.9581C120.963 17.9581 120.797 18.3386 120.661 18.9728C120.188 21.1896 119.691 21.691 119.046 21.691C118.33 21.691 117.685 20.5916 117.519 18.393C117.389 16.6654 117.407 13.4822 117.573 10.3171C117.608 9.66476 117.431 9.02449 115.715 8.39026C114.975 8.11845 113.899 7.71375 113.366 9.03053C111.858 12.7332 111.266 15.6748 111.124 16.8708C111.118 16.9312 111.041 16.9433 111.029 16.8044C110.94 15.844 110.745 14.1044 110.716 10.45C110.71 9.73724 110.562 9.12717 109.787 8.63187C109.284 8.31174 107.758 7.73791 107.207 8.42046C106.734 8.97617 106.178 10.4681 105.604 12.2379C105.137 13.6755 104.817 14.648 104.817 14.648C104.817 14.648 104.823 10.7641 104.829 9.2963C104.829 8.7406 104.456 8.55939 104.344 8.52314C103.835 8.37214 102.829 8.12449 102.403 8.12449C101.877 8.12449 101.752 8.42046 101.752 8.85536C101.752 8.90972 101.67 13.9654 101.67 17.499V18.0003C101.38 19.6252 100.439 21.8299 99.4155 21.8299C98.386 21.8299 97.9068 20.9118 97.9068 16.6956C97.9068 14.2373 97.9778 13.1681 98.0133 11.3923C98.0311 10.3715 98.0725 9.58019 98.0725 9.40503C98.0666 8.85536 97.1318 8.58355 96.6999 8.48086C96.2621 8.37818 95.8834 8.3359 95.5876 8.35402C95.1676 8.37818 94.8717 8.65603 94.8717 9.04261C94.8717 9.24798 94.8717 9.6406 94.8717 9.6406C94.3334 8.78288 93.4696 8.18489 92.8898 8.00972C91.3397 7.54462 89.7186 7.95536 88.4939 9.69496C87.5237 11.0721 86.938 12.6366 86.7072 14.8836C86.5356 16.5265 86.5948 18.1936 86.8906 19.601C86.5297 21.1896 85.8553 21.842 85.1217 21.842C84.0567 21.842 83.2817 20.0722 83.3704 17.0097C83.4296 14.9983 83.826 13.5849 84.2579 11.5372C84.4413 10.6674 84.2934 10.2084 83.9147 9.77348C83.5716 9.37483 82.832 9.16946 81.773 9.41711C81.0216 9.59832 79.9389 9.7916 78.9568 9.93657C78.9568 9.93657 79.016 9.69496 79.0633 9.27214C79.3177 7.04328 76.9334 7.22448 76.1702 7.93724C75.7147 8.3661 75.407 8.86744 75.2887 9.76744C75.1053 11.199 76.2531 11.8755 76.2531 11.8755C75.8744 13.6272 74.9515 15.9164 73.999 17.5715C73.4902 18.4594 73.0938 19.1178 72.5909 19.8124C72.5909 19.5527 72.5909 19.293 72.585 19.0332C72.5731 15.3487 72.6204 12.4493 72.6441 11.4044C72.6619 10.3836 72.7033 9.61644 72.7033 9.43523C72.6974 9.03657 72.4666 8.88556 71.9874 8.69227C71.5614 8.52315 71.0645 8.40838 70.5438 8.3661C69.893 8.31174 69.4966 8.66811 69.5085 9.08489C69.5085 9.16341 69.5085 9.64664 69.5085 9.64664C68.9701 8.78892 68.1063 8.19093 67.5265 8.01576C65.9764 7.55066 64.3553 7.9614 63.1307 9.701C62.1604 11.0782 61.5273 13.0171 61.3439 14.8715C61.1783 16.599 61.2079 18.0668 61.4386 19.305C61.1901 20.5433 60.4801 21.842 59.6814 21.842C58.6579 21.842 58.0722 20.9238 58.0722 16.7077C58.0722 14.2493 58.1432 13.1802 58.1787 11.4044C58.2024 10.3836 58.2379 9.59228 58.2379 9.41711C58.2319 8.86744 57.2972 8.59563 56.8653 8.49294C56.4097 8.38422 56.0192 8.34798 55.7175 8.37214C55.3211 8.40234 55.043 8.76476 55.043 9.03053V9.65268C54.5047 8.79496 53.635 8.19697 53.0611 8.0218C51.511 7.5567 49.9018 7.97952 48.6712 9.70704C47.8665 10.8366 47.2157 12.0869 46.8844 14.8534C46.7839 15.6507 46.7424 16.3997 46.7484 17.1003C46.4289 19.0936 45.0149 21.3829 43.8612 21.3829C43.1867 21.3829 42.5419 20.048 42.5419 17.2091C42.5419 13.4218 42.7726 8.03388 42.814 7.51442C42.814 7.51442 44.2753 7.49026 44.5593 7.48422C45.287 7.47818 45.9497 7.4963 46.9199 7.44194C47.4051 7.41777 47.8725 5.64193 47.3755 5.42448C47.1448 5.3218 45.5355 5.23723 44.8965 5.22515C44.3877 5.19495 42.8909 5.08018 42.8909 5.08018C42.8909 5.08018 43.027 1.50434 43.0566 1.1238C43.0802 0.809706 42.6779 0.646619 42.4531 0.549974C41.8911 0.308363 41.3941 0.193598 40.8025 0.0727919C39.9801 -0.102376 39.6133 0.0667516 39.5364 0.773465C39.4239 1.83655 39.3707 4.96542 39.3707 4.96542C38.7672 4.96542 36.7143 4.84461 36.1167 4.84461C35.5547 4.84461 34.9571 7.28489 35.7262 7.31509C36.6137 7.35133 38.1638 7.38153 39.1932 7.41173C39.1932 7.41173 39.1459 12.8903 39.1459 14.5815C39.1459 14.7567 39.1459 14.9319 39.1459 15.101C38.5838 18.097 36.59 19.7097 36.59 19.7097C37.016 17.7285 36.1463 16.2426 34.5726 14.9862C33.9928 14.5211 32.8509 13.6453 31.5671 12.6789C31.5671 12.6789 32.3066 11.9359 32.9692 10.444C33.4366 9.38691 33.4544 8.17281 32.3125 7.90704C30.4252 7.4661 28.8633 8.87348 28.4018 10.3836C28.0409 11.5493 28.2362 12.4131 28.9402 13.3131C28.9875 13.3795 29.0467 13.446 29.1059 13.5124C28.6799 14.352 28.0942 15.4755 27.5972 16.3453C26.2187 18.7675 25.1774 20.6822 24.3906 20.6822C23.7634 20.6822 23.7694 18.7373 23.7694 16.9191C23.7694 15.3487 23.8818 12.993 23.9764 10.5466C24.006 9.73724 23.6096 9.27818 22.9411 8.8614C22.5388 8.60771 21.675 8.10637 21.1721 8.10637C20.4207 8.10637 18.2613 8.20905 16.2201 14.2131C15.9657 14.9681 15.4569 16.3513 15.4569 16.3513L15.4983 9.13321C15.4983 8.96409 15.4096 8.801 15.2084 8.68623C14.8653 8.49294 13.9423 8.10637 13.1259 8.10637C12.7354 8.10637 12.5402 8.29361 12.5402 8.66207L12.4692 19.9574C12.4692 20.8151 12.4928 21.8178 12.5757 22.2527C12.6585 22.6876 12.7946 23.05 12.9602 23.2614C13.1259 23.4728 13.3211 23.6359 13.6347 23.7024C13.9305 23.7628 15.5516 23.9742 15.6344 23.346C15.735 22.591 15.7409 21.7755 16.5928 18.7373C17.9181 14.0017 19.6457 11.6943 20.4562 10.8728C20.5982 10.7278 20.7639 10.7218 20.752 10.9574C20.7165 11.9963 20.5982 14.5936 20.5154 16.7923C20.2965 22.6876 21.3496 23.7809 22.8582 23.7809C24.0119 23.7809 25.6389 22.6151 27.3842 19.6675C28.4728 17.8312 29.5259 16.0252 30.2891 14.7265C30.8157 15.2218 31.4132 15.7594 32.0049 16.3272C33.3834 17.6561 33.833 18.9185 33.5372 20.1144C33.3065 21.0326 32.4427 21.9749 30.9044 21.0567C30.4548 20.791 30.2655 20.5856 29.8158 20.2775C29.5733 20.1144 29.2005 20.0661 28.9816 20.2413C28.4078 20.6822 28.0764 21.244 27.8871 21.9386C27.7037 22.6151 28.3723 22.9715 29.0585 23.2856C29.6561 23.5574 30.934 23.799 31.7505 23.8292C34.9275 23.9379 37.4716 22.2708 39.2465 17.9701C39.5659 21.6849 40.9149 23.7869 43.2577 23.7869C44.8256 23.7869 46.3993 21.7272 47.0856 19.7037C47.2808 20.5312 47.5766 21.25 47.9494 21.854C49.7598 24.7655 53.2622 24.1373 55.0253 21.6668C55.5696 20.9057 55.6524 20.6279 55.6524 20.6279C55.9068 22.9594 57.7586 23.7749 58.8177 23.7749C60.0009 23.7749 61.2256 23.2071 62.0835 21.244C62.1841 21.4554 62.2965 21.6608 62.4148 21.854C64.2193 24.7655 67.7276 24.1373 69.4848 21.6668C69.5676 21.552 69.6386 21.4493 69.7037 21.3527L69.757 22.8869C69.757 22.8869 68.7512 23.8232 68.1359 24.397C65.4203 26.9279 63.3555 28.8487 63.2017 31.0836C63.0064 33.9346 65.2842 34.9917 67.0059 35.1306C68.834 35.2756 70.4018 34.2547 71.3603 32.8172C72.2063 31.5547 72.7624 28.8306 72.721 26.1487C72.7033 25.0735 72.6796 23.7084 72.6559 22.2406C73.6085 21.1171 74.6852 19.6916 75.6733 18.0305C76.75 16.2124 77.9096 13.7782 78.5013 11.8815C78.5013 11.8815 79.507 11.8876 80.5779 11.8211C80.9211 11.803 81.0157 11.8695 80.9566 12.1232C80.8796 12.4312 79.6017 17.4386 80.7672 20.7728C81.5659 23.0561 83.3645 23.793 84.4294 23.793C85.6778 23.793 86.8729 22.8386 87.5118 21.4131C87.5888 21.5702 87.6716 21.7212 87.7603 21.8661C89.5648 24.7775 93.0614 24.1433 94.8363 21.6789C95.2386 21.1232 95.4634 20.6399 95.4634 20.6399C95.842 23.0561 97.6938 23.799 98.7529 23.799C99.8533 23.799 100.9 23.34 101.752 21.2983C101.788 22.1983 101.847 22.9353 101.93 23.1648C101.983 23.3037 102.297 23.4849 102.527 23.5695C103.539 23.95 104.563 23.7688 104.947 23.6903C105.213 23.6359 105.415 23.4185 105.444 22.8688C105.515 21.4131 105.474 18.9608 105.906 17.1426C106.633 14.0862 107.314 12.9023 107.639 12.3164C107.817 11.9903 108.024 11.9359 108.03 12.2802C108.047 12.9869 108.083 15.0466 108.361 17.8252C108.568 19.8668 108.846 21.0749 109.059 21.4554C109.668 22.5487 110.42 22.597 111.029 22.597C111.42 22.597 112.23 22.4883 112.159 21.7936C112.124 21.4554 112.189 19.3654 112.905 16.3513C113.378 14.3883 114.159 12.6124 114.443 11.9661C114.549 11.7245 114.597 11.9178 114.597 11.954C114.538 13.307 114.402 17.7285 114.946 20.1507C115.679 23.4306 117.809 23.793 118.549 23.793C120.129 23.793 121.424 22.5728 121.862 19.3534C121.945 18.5621 121.791 17.9581 121.324 17.9581ZM55.043 15.9708C54.9543 17.6742 54.623 19.0997 54.1023 20.1326C53.1498 22.0051 51.2743 22.597 50.4461 19.891C49.8485 17.9399 50.0497 15.2822 50.2981 13.8446C50.665 11.7124 51.5879 10.2023 53.0315 10.3473C54.5165 10.4983 55.2324 12.4312 55.043 15.9708ZM69.5085 15.995C69.4256 17.6017 69.0115 19.2205 68.5678 20.1326C67.6448 22.0171 65.7102 22.6091 64.9115 19.891C64.3672 18.0366 64.4973 15.6386 64.7636 14.1285C65.1126 12.1654 65.9646 10.3473 67.4969 10.3473C68.9878 10.3473 69.7215 12.0084 69.5085 15.995ZM69.8871 26.9702C69.8694 29.9057 69.4138 32.4729 68.4376 33.2219C67.0532 34.2789 65.1955 33.4876 65.58 31.3494C65.9232 29.4527 67.5265 27.5198 69.8871 25.1581C69.893 25.152 69.893 25.6896 69.8871 26.9702ZM94.854 16.0131C94.7712 17.7769 94.3866 19.1601 93.9133 20.1326C92.9904 22.0171 91.0676 22.603 90.257 19.891C89.8133 18.4171 89.7955 15.9467 90.115 13.8869C90.4404 11.7909 91.3456 10.2023 92.8484 10.3473C94.3215 10.4923 95.0137 12.4312 94.854 16.0131Z" fill="white"/>
</svg>
